<svg width="30" height="30" viewBox="0 0 50 50" fill="none" xmlns="http://www.w3.org/2000/svg">
<path d="M0.475708 18.1573C0.475708 18.1573 -0.742104 17.27 0.71927 16.0851L4.12407 13.0077C4.12407 13.0077 5.09832 11.9716 6.12839 12.8743L37.548 36.9195V48.4497C37.548 48.4497 37.5327 50.2602 35.2341 50.0602L0.475708 18.1573Z" fill="#2489CA"/>
<path d="M8.57415 25.5894L0.47569 33.0316C0.47569 33.0316 -0.356483 33.6574 0.47569 34.7755L4.23569 38.2325C4.23569 38.2325 5.12875 39.2019 6.44805 38.0992L15.0336 31.5186L8.57415 25.5894Z" fill="#1070B3"/>
<path d="M22.7922 25.6509L37.6444 14.1873L37.548 2.71868C37.548 2.71868 36.9137 0.215679 34.7978 1.51847L15.0337 19.7011L22.7922 25.6509Z" fill="#0877B9"/>
<path d="M35.2342 50.0756C36.0968 50.9681 37.1421 50.6758 37.1421 50.6758L48.7164 44.9106C50.198 43.89 49.99 42.6231 49.99 42.6231V8.19661C49.99 6.68353 48.4576 6.16036 48.4576 6.16036L38.4259 1.27234C36.2338 -0.0971266 34.7978 1.51854 34.7978 1.51854C34.7978 1.51854 36.6448 0.174715 37.548 2.71874V48.2394C37.548 48.5523 37.4821 48.8601 37.3501 49.137C37.0863 49.6756 36.5129 50.1782 35.1378 49.9679L35.2342 50.0756Z" fill="#3C99D4"/>
</svg>
