<svg width="30" height="30" viewBox="0 0 55 41" fill="none" xmlns="http://www.w3.org/2000/svg">
<path d="M47.3593 23.5693C45.4405 23.5793 43.7729 24.0386 42.3765 24.7177C41.8642 23.7091 41.3518 22.8104 41.2614 22.1513C41.1609 21.3824 41.0404 20.9131 41.1609 19.9944C41.2815 19.0757 41.824 17.7675 41.8139 17.6676C41.8039 17.5678 41.6934 17.0985 40.5883 17.0885C39.4833 17.0785 38.5289 17.2982 38.4184 17.5878C38.3079 17.8773 38.0969 18.5364 37.9563 19.2155C37.7654 20.214 35.7462 23.779 34.5909 25.6464C34.2192 24.9174 33.8977 24.2783 33.8274 23.769C33.7269 23.0001 33.6064 22.5308 33.7269 21.6121C33.8475 20.6934 34.39 19.3852 34.3799 19.2854C34.3699 19.1855 34.2594 18.7162 33.1543 18.7062C32.0493 18.6962 31.0949 18.9159 30.9844 19.2055C30.8739 19.4951 30.7533 20.1741 30.5223 20.8332C30.2912 21.4922 27.6089 27.4438 26.9057 28.9816C26.5441 29.7705 26.2326 30.3996 26.0116 30.829C26.0116 30.829 26.0016 30.859 25.9714 30.9089C25.7806 31.2784 25.6701 31.4781 25.6701 31.4781C25.6701 31.4781 25.6701 31.4781 25.6701 31.4881C25.5194 31.7577 25.3586 32.0074 25.2783 32.0074C25.218 32.0074 25.1075 31.2884 25.2984 30.3098C25.7002 28.2427 26.6546 25.0272 26.6445 24.9174C26.6445 24.8575 26.8254 24.2983 26.0217 24.0087C25.2381 23.7191 24.9568 24.1984 24.8865 24.1984C24.8162 24.1984 24.7659 24.3682 24.7659 24.3682C24.7659 24.3682 25.6399 20.7533 23.0983 20.7533C21.511 20.7533 19.321 22.4808 18.2361 24.0386C17.5529 24.4081 16.0963 25.197 14.5391 26.0458C13.9464 26.3753 13.3336 26.7049 12.761 27.0144C12.7208 26.9745 12.6806 26.9246 12.6405 26.8846C9.56639 23.6192 3.88038 21.3125 4.12148 16.9287C4.21189 15.331 4.76442 11.1369 15.0414 6.04409C23.5001 1.89995 30.2309 3.04833 31.3963 5.59472C33.0639 9.22958 27.7898 15.98 19.0498 16.9587C15.7145 17.3281 13.9665 16.0499 13.5245 15.5706C13.0624 15.0713 12.9921 15.0414 12.8213 15.1412C12.54 15.291 12.7208 15.7404 12.8213 16C13.0825 16.679 14.1574 17.8773 15.9757 18.4665C17.5831 18.9858 21.4909 19.2754 26.2226 17.4579C31.5168 15.4208 35.6558 9.75883 34.4402 5.01554C33.2246 0.202351 25.1879 -1.3854 17.5831 1.3008C13.0624 2.89854 8.15996 5.41498 4.63382 8.69034C0.444656 12.5848 -0.218377 15.97 0.0528638 17.388C1.02732 22.4209 8.00927 25.6963 10.802 28.1229C10.6614 28.2027 10.5308 28.2726 10.4203 28.3326C9.02391 29.0216 3.69955 31.7877 2.37348 34.7135C0.866587 38.0288 2.61458 40.4055 3.76987 40.725C7.35628 41.7136 11.0431 39.9361 13.0222 37.0003C15.0013 34.0645 14.7602 30.2498 13.846 28.5023C13.8359 28.4823 13.8259 28.4624 13.8058 28.4424C14.1674 28.2327 14.5391 28.013 14.9008 27.8033C15.6141 27.3839 16.3173 26.9945 16.92 26.6749C16.5785 27.6036 16.3273 28.712 16.2068 30.3098C16.0561 32.1871 16.8296 34.6237 17.8443 35.5823C18.2963 36.0017 18.8288 36.0117 19.1703 36.0117C20.3558 36.0117 20.8882 35.0331 21.4809 33.8747C22.2042 32.4567 22.8572 30.8091 22.8572 30.8091C22.8572 30.8091 22.0435 35.2628 24.2536 35.2628C25.0573 35.2628 25.871 34.2242 26.2326 33.695C26.2326 33.705 26.2326 33.705 26.2326 33.705C26.2326 33.705 26.2527 33.675 26.2929 33.6051C26.3733 33.4753 26.4235 33.3954 26.4235 33.3954C26.4235 33.3954 26.4235 33.3854 26.4235 33.3754C26.745 32.8162 27.4683 31.548 28.5432 29.441C29.9296 26.7248 31.2657 23.3296 31.2657 23.3296C31.2657 23.3296 31.3862 24.1585 31.7981 25.5365C32.0392 26.3454 32.5415 27.2341 32.9433 28.0929C32.6219 28.5423 32.421 28.7919 32.421 28.7919C32.421 28.7919 32.421 28.7919 32.431 28.8019C32.1698 29.1414 31.8885 29.5109 31.5771 29.8704C30.4821 31.1685 29.1761 32.6564 28.9953 33.0858C28.7843 33.5951 28.8345 33.9646 29.2364 34.2642C29.5277 34.4839 30.0501 34.5138 30.5825 34.4839C31.567 34.414 32.2602 34.1743 32.6018 34.0245C33.1342 33.8348 33.7571 33.5452 34.3397 33.1158C35.4147 32.3269 36.0676 31.1985 36.0074 29.7106C35.9772 28.8918 35.706 28.0729 35.3745 27.304C35.4749 27.1642 35.5653 27.0244 35.6658 26.8846C37.3636 24.4181 38.6796 21.7119 38.6796 21.7119C38.6796 21.7119 38.8001 22.5408 39.212 23.9188C39.4129 24.6178 39.8248 25.3767 40.1865 26.1157C38.5892 27.4039 37.6047 28.9018 37.2531 29.8804C36.6202 31.6978 37.1124 32.5166 38.0467 32.7064C38.4686 32.7962 39.0714 32.5965 39.5134 32.4068C40.076 32.2271 40.739 31.9175 41.3719 31.4581C42.4468 30.6693 43.4816 29.5708 43.4213 28.0829C43.3911 27.4039 43.2103 26.7348 42.9592 26.0857C44.3154 25.5265 46.0634 25.217 48.2936 25.4766C53.0755 26.0358 54.0198 29.0016 53.839 30.2498C53.6581 31.4981 52.6535 32.1771 52.322 32.3868C51.9905 32.5965 51.88 32.6664 51.9101 32.8162C51.9503 33.0359 52.111 33.0259 52.3923 32.986C52.7841 32.9161 54.9038 31.9774 54.9942 29.6807C55.1449 26.7448 52.3321 23.5393 47.3593 23.5693ZM10.4705 35.9318C8.88327 37.6494 6.67315 38.2985 5.71879 37.7492C4.6941 37.1601 5.09594 34.6237 7.04485 32.8062C8.23028 31.6978 9.75727 30.6693 10.7719 30.0401C11.003 29.9003 11.3445 29.7006 11.7564 29.451C11.8267 29.411 11.8669 29.3911 11.8669 29.3911C11.9473 29.3411 12.0277 29.2912 12.108 29.2413C12.8213 31.8376 12.1382 34.1244 10.4705 35.9318ZM22.0234 28.1229C21.4709 29.461 20.3156 32.8861 19.6124 32.6964C19.0096 32.5366 18.6379 29.9403 19.4918 27.3739C19.9238 26.0857 20.838 24.5479 21.3704 23.9488C22.2344 22.9901 23.1887 22.6706 23.4198 23.06C23.7111 23.5693 22.3649 27.284 22.0234 28.1229ZM31.557 32.6564C31.3259 32.7763 31.1049 32.8562 31.0045 32.7962C30.9342 32.7563 31.1049 32.5965 31.1049 32.5965C31.1049 32.5965 32.3004 31.3183 32.7726 30.7392C33.0438 30.3996 33.3653 30.0002 33.7068 29.5508C33.7068 29.5908 33.7068 29.6407 33.7068 29.6807C33.7068 31.2085 32.22 32.237 31.557 32.6564ZM38.9106 30.9888C38.7399 30.869 38.77 30.4695 39.3426 29.2213C39.5636 28.732 40.086 27.9132 40.9801 27.1243C41.0806 27.4438 41.1509 27.7534 41.1409 28.043C41.1308 29.9702 39.7445 30.6892 38.9106 30.9888Z" fill="#CD6799"/>
</svg>
