<svg width="30" height="30" viewBox="0 0 38 58" fill="none" xmlns="http://www.w3.org/2000/svg">
<path d="M9.41667 57.2216C14.6147 57.2216 18.8333 53.003 18.8333 47.805V38.3883H9.41667C4.21867 38.3883 0 42.607 0 47.805C0 53.003 4.21867 57.2216 9.41667 57.2216Z" fill="#0ACF83"/>
<path d="M0 28.9715C0 23.7735 4.21867 19.5548 9.41667 19.5548H18.8333V38.3881H9.41667C4.21867 38.3881 0 34.1695 0 28.9715Z" fill="#A259FF"/>
<path d="M0 10.1382C0 4.94022 4.21867 0.721558 9.41667 0.721558H18.8333V19.5549H9.41667C4.21867 19.5549 0 15.3362 0 10.1382Z" fill="#F24E1E"/>
<path d="M18.8333 0.721558H28.25C33.448 0.721558 37.6667 4.94022 37.6667 10.1382C37.6667 15.3362 33.448 19.5549 28.25 19.5549H18.8333V0.721558Z" fill="#FF7262"/>
<path d="M37.6667 28.9715C37.6667 34.1695 33.448 38.3881 28.25 38.3881C23.052 38.3881 18.8333 34.1695 18.8333 28.9715C18.8333 23.7735 23.052 19.5548 28.25 19.5548C33.448 19.5548 37.6667 23.7735 37.6667 28.9715Z" fill="#1ABCFE"/>
</svg>
