<svg width="30" height="30" viewBox="0 0 48 54" fill="none" xmlns="http://www.w3.org/2000/svg">
<path d="M48 0L43.6271 48.5944L23.9706 54L4.36829 48.602L0 0H48Z" fill="#264DE4"/>
<path d="M39.8834 45.5L43.6203 3.97388H24V49.8681L39.8834 45.5Z" fill="#2965F1"/>
<path d="M10.0142 21.9998L10.5528 27.9605H24V21.9998H10.0142Z" fill="#EBEBEB"/>
<path d="M24 9.93481H23.9792H8.93204L9.47829 15.8957H24V9.93481Z" fill="#EBEBEB"/>
<path d="M24 43.6822V37.4804L23.9737 37.4874L17.2813 35.6948L16.8535 30.9408H13.6015H10.8213L11.6632 40.3002L23.9723 43.6898L24 43.6822Z" fill="#EBEBEB"/>
<path d="M31.3788 27.9605L30.6813 35.6912L23.9792 37.4856V43.6871L36.2982 40.3003L36.3886 39.2933L37.8007 23.6003L37.9473 21.9997L39.0321 9.93481H23.9792V15.8957H32.4467L31.8999 21.9997H23.9792V27.9605H31.3788Z" fill="white"/>
</svg>
