<svg width="39" height="37" viewBox="0 0 39 37" fill="none" xmlns="http://www.w3.org/2000/svg">
<path d="M19.0137 0.577394C8.50858 0.57322 0 8.92904 0 19.2423C0 27.3978 5.32264 34.3304 12.7353 36.8764C13.7335 37.1226 13.5806 36.4256 13.5806 35.9498V32.7152C7.81617 33.3788 7.58253 29.6308 7.19597 29.0047C6.41436 27.6942 4.56651 27.3603 5.11874 26.7342C6.43135 26.0706 7.76944 26.9011 9.31993 29.1508C10.4414 30.7827 12.6291 30.5073 13.7378 30.236C13.9799 29.2551 14.4981 28.3787 15.2118 27.6983C9.23922 26.6466 6.74994 23.0655 6.74994 18.8083C6.74994 16.7423 7.44235 14.8432 8.80169 13.3115C7.93511 10.7864 8.8824 8.62436 9.00984 8.30298C11.4779 8.08595 14.0436 10.0393 14.2433 10.1937C15.6451 9.82222 17.2466 9.62606 19.0392 9.62606C20.8403 9.62606 22.446 9.83057 23.8606 10.2062C24.3406 9.84726 26.7194 8.16942 29.0133 8.37393C29.1365 8.69531 30.0625 10.8072 29.2469 13.2989C30.6232 14.8349 31.3242 16.7506 31.3242 18.8208C31.3242 23.0864 28.8179 26.6716 22.8283 27.7067C23.3413 28.2024 23.7487 28.7936 24.0266 29.4457C24.3045 30.0978 24.4473 30.7978 24.4468 31.5048V36.2002C24.4808 36.5759 24.4468 36.9473 25.084 36.9473C32.607 34.4556 38.0231 27.473 38.0231 19.2465C38.0231 8.92904 29.5103 0.577394 19.0137 0.577394Z" fill="#594BFF"/>
</svg>
