<svg width="30" height="30" viewBox="0 0 42 58" fill="none" xmlns="http://www.w3.org/2000/svg">
<path d="M13.5266 45.0814C13.5266 45.0814 11.3504 46.3481 15.0753 46.7767C19.588 47.2919 21.8942 47.2181 26.8673 46.2759C26.8673 46.2759 28.1748 47.0965 30.0006 47.8073C18.8526 52.5895 4.77023 47.5302 13.5266 45.0814ZM12.1643 38.8408C12.1643 38.8408 9.72351 40.6493 13.4512 41.0351C18.2717 41.5329 22.0786 41.5736 28.666 40.304C28.666 40.304 29.5772 41.2285 31.0098 41.7342C17.5311 45.6792 2.51825 42.0453 12.1643 38.8408Z" fill="#5382A1"/>
<path d="M23.6484 28.2548C26.3954 31.4202 22.9267 34.2687 22.9267 34.2687C22.9267 34.2687 29.9015 30.6649 26.6983 26.1518C23.7066 21.9434 21.4123 19.8521 33.8324 12.6423C33.8324 12.6423 14.337 17.5158 23.6484 28.2547" fill="#E76F00"/>
<path d="M38.3927 49.6974C38.3927 49.6974 40.0031 51.0254 36.619 52.0529C30.1843 54.0042 9.83666 54.5933 4.18412 52.1307C2.15226 51.2461 5.96272 50.0182 7.16126 49.7604C8.41124 49.4891 9.12568 49.5398 9.12568 49.5398C6.86595 47.9464 -5.4802 52.6684 2.8545 54.0205C25.5842 57.71 44.2884 52.3592 38.3927 49.6974ZM14.5729 32.3749C14.5729 32.3749 4.22303 34.8356 10.9079 35.7289C13.7304 36.1072 19.357 36.0217 24.5982 35.582C28.8815 35.2206 33.1825 34.4515 33.1825 34.4515C33.1825 34.4515 31.6722 35.099 30.5795 35.8458C20.0692 38.6126 -0.234926 37.3255 5.61036 34.4953C10.5537 32.1036 14.5731 32.3749 14.5731 32.3749H14.5729ZM33.1398 42.7626C43.8243 37.2055 38.8842 31.8653 35.4361 32.5848C34.591 32.7607 34.2142 32.9132 34.2142 32.9132C34.2142 32.9132 34.528 32.4214 35.1272 32.2085C41.9484 29.8081 47.1945 39.2881 32.9251 43.0426C32.9251 43.0428 33.0905 42.8949 33.1398 42.7626Z" fill="#5382A1"/>
<path d="M26.6983 1.00017C26.6983 1.00017 32.6155 6.92493 21.0861 16.035C11.8409 23.3431 18.9779 27.5099 21.0823 32.2707C15.6857 27.3972 11.7252 23.1069 14.3823 19.1141C18.282 13.2525 29.0856 10.4108 26.6983 1" fill="#E76F00"/>
<path d="M15.6229 57.8208C25.8785 58.478 41.627 57.4562 42 52.5991C42 52.5991 41.2831 54.4406 33.5243 55.9028C24.771 57.5515 13.975 57.359 7.57178 56.3023C7.57194 56.3023 8.8826 57.3882 15.6231 57.8208" fill="#5382A1"/>
</svg>
