<svg width="34" height="34" viewBox="0 0 34 34" fill="none" xmlns="http://www.w3.org/2000/svg">
<path d="M31.7757 0.883789H1.35721C0.625679 0.883789 0.034668 1.4748 0.034668 2.20633V32.6248C0.034668 33.3564 0.625679 33.9474 1.35721 33.9474H31.7757C32.5072 33.9474 33.0983 33.3564 33.0983 32.6248V2.20633C33.0983 1.4748 32.5072 0.883789 31.7757 0.883789ZM9.84215 29.0581H4.93634V13.2785H9.84215V29.0581ZM7.39132 11.1211C6.82893 11.1211 6.27917 10.9543 5.81157 10.6419C5.34396 10.3294 4.97951 9.88536 4.76429 9.36578C4.54908 8.8462 4.49277 8.27448 4.60248 7.7229C4.7122 7.17132 4.98301 6.66466 5.38068 6.267C5.77835 5.86933 6.285 5.59852 6.83658 5.4888C7.38816 5.37909 7.95989 5.4354 8.47946 5.65061C8.99904 5.86583 9.44313 6.23028 9.75557 6.69789C10.068 7.16549 10.2348 7.71525 10.2348 8.27763C10.2306 9.84815 8.9577 11.1211 7.39132 11.1211ZM28.209 29.0581H23.3073V21.3832C23.3073 19.5523 23.2742 17.2007 20.7573 17.2007C18.2072 17.2007 17.8146 19.1927 17.8146 21.251V29.0581H12.9171V13.2785H17.6204V15.4359H17.6865C18.3395 14.196 19.9389 12.8859 22.3278 12.8859C27.2956 12.8859 28.209 16.155 28.209 20.4037V29.0581Z" fill="#4B93FF"/>
</svg>
