<svg width="50" height="24" viewBox="0 0 256 256" fill="none" xmlns="http://www.w3.org/2000/svg">
<path d="M27.052 0.361572L0.587307 2.4156C0.479809 2.42406 0.379194 2.47143 0.302471 2.54747C0.126692 2.72293 0.123825 3.00949 0.300758 3.18773L7.55155 10.4843C7.66073 10.594 7.81844 10.6414 7.96968 10.6066L12.3006 9.67645L9.45666 13.0691C9.35666 13.189 9.3234 13.3482 9.37183 13.4945L12.4363 23.3299C12.4686 23.4329 12.5354 23.5219 12.625 23.5772C12.8354 23.712 13.1155 23.6493 13.2528 23.4374L27.4722 1.05898C27.5256 0.977146 27.5482 0.877371 27.5432 0.781049C27.5208 0.52956 27.3025 0.343125 27.052 0.361572ZM13.365 19.4516L11.577 13.7193L17.2664 6.9363C17.3106 6.88319 17.3304 6.81163 17.3147 6.7416C17.2872 6.61905 17.1679 6.54191 17.0439 6.56694L8.3898 8.42918L4.17414 4.18597L24.043 2.64481L13.365 19.4516Z" fill="#9A4BFF"/>
<path d="M27.052 0.361572L0.587307 2.4156C0.479809 2.42406 0.379194 2.47143 0.302471 2.54747C0.126692 2.72293 0.123825 3.00949 0.300758 3.18773L7.55155 10.4843C7.66073 10.594 7.81844 10.6414 7.96968 10.6066L12.3006 9.67645L9.45666 13.0691C9.35666 13.189 9.3234 13.3482 9.37183 13.4945L12.4363 23.3299C12.4686 23.4329 12.5354 23.5219 12.625 23.5772C12.8354 23.712 13.1155 23.6493 13.2528 23.4374L27.4722 1.05898C27.5256 0.977146 27.5482 0.877371 27.5432 0.781049C27.5208 0.52956 27.3025 0.343125 27.052 0.361572ZM13.365 19.4516L11.577 13.7193L17.2664 6.9363C17.3106 6.88319 17.3304 6.81163 17.3147 6.7416C17.2872 6.61905 17.1679 6.54191 17.0439 6.56694L8.3898 8.42918L4.17414 4.18597L24.043 2.64481L13.365 19.4516Z" fill="black" fill-opacity="0.2"/>
</svg>
